<svg width="800" height="800" viewBox="0 0 800 800" fill="none" xmlns="http://www.w3.org/2000/svg">
<path d="M625 600H491.667C485.036 600 478.678 597.366 473.989 592.678C469.301 587.989 466.667 581.63 466.667 575V341.667C466.667 335.036 469.301 328.677 473.989 323.989C478.678 319.301 485.036 316.667 491.667 316.667H691.667C698.297 316.667 704.656 319.301 709.344 323.989C714.033 328.677 716.667 335.036 716.667 341.667V508.333C716.667 558.883 675.533 600 625 600ZM516.667 550H625C647.983 550 666.667 531.3 666.667 508.333V366.667H516.667V550Z" fill="#D1B43D"/>
<path d="M100 300V716.667C100 725.421 101.724 734.091 105.075 742.179C108.425 750.267 113.336 757.617 119.526 763.807C125.717 769.998 133.066 774.908 141.154 778.259C149.243 781.609 157.912 783.333 166.667 783.333H533.333C542.088 783.333 550.757 781.609 558.846 778.259C566.934 774.908 574.283 769.998 580.474 763.807C586.664 757.617 591.575 750.267 594.925 742.179C598.276 734.091 600 725.421 600 716.667V300H100Z" fill="#EFD358"/>
<path d="M350 650C345.58 650 341.34 648.244 338.215 645.118C335.089 641.993 333.333 637.754 333.333 633.333V416.667C333.333 412.246 335.089 408.007 338.215 404.882C341.34 401.756 345.58 400 350 400C354.42 400 358.659 401.756 361.785 404.882C364.911 408.007 366.667 412.246 366.667 416.667V633.333C366.667 637.754 364.911 641.993 361.785 645.118C358.659 648.244 354.42 650 350 650ZM233.333 650C231.145 650 228.977 649.569 226.955 648.731C224.933 647.894 223.096 646.666 221.548 645.118C220.001 643.571 218.773 641.733 217.935 639.711C217.098 637.689 216.667 635.522 216.667 633.333V416.667C216.667 412.246 218.423 408.007 221.548 404.882C224.674 401.756 228.913 400 233.333 400C237.754 400 241.993 401.756 245.118 404.882C248.244 408.007 250 412.246 250 416.667V633.333C250 637.754 248.244 641.993 245.118 645.118C241.993 648.244 237.754 650 233.333 650ZM466.667 650C462.246 650 458.007 648.244 454.882 645.118C451.756 641.993 450 637.754 450 633.333V416.667C450 412.246 451.756 408.007 454.882 404.882C458.007 401.756 462.246 400 466.667 400C471.087 400 475.326 401.756 478.452 404.882C481.577 408.007 483.333 412.246 483.333 416.667V633.333C483.333 635.522 482.902 637.689 482.065 639.711C481.227 641.733 479.999 643.571 478.452 645.118C476.904 646.666 475.067 647.894 473.045 648.731C471.023 649.569 468.855 650 466.667 650Z" fill="#D1B43D"/>
<path d="M550 166.667H543.45C521.217 80.45 443.167 16.6666 350 16.6666C256.833 16.6666 178.783 80.45 156.55 166.667H150C127.899 166.667 106.702 175.446 91.0744 191.074C75.4464 206.702 66.6666 227.899 66.6666 250C66.6666 272.101 75.4464 293.297 91.0744 308.926C106.702 324.554 127.899 333.333 150 333.333H550C572.101 333.333 593.298 324.554 608.926 308.926C624.554 293.297 633.333 272.101 633.333 250C633.333 227.899 624.554 206.702 608.926 191.074C593.298 175.446 572.101 166.667 550 166.667ZM200 333.333V483.333C199.999 487.711 200.861 492.046 202.536 496.091C204.211 500.136 206.666 503.811 209.761 506.907C212.857 510.003 216.531 512.458 220.576 514.134C224.621 515.809 228.955 516.672 233.333 516.672C237.711 516.672 242.046 515.809 246.091 514.134C250.135 512.458 253.81 510.003 256.905 506.907C260.001 503.811 262.456 500.136 264.131 496.091C265.806 492.046 266.667 487.711 266.667 483.333V333.333H200Z" fill="#E6E6E6"/>
</svg>
