<svg width="800" height="800" viewBox="0 0 800 800" fill="none" xmlns="http://www.w3.org/2000/svg">
<path d="M166.667 750C163.942 749.999 161.26 749.331 158.854 748.053C156.448 746.776 154.392 744.928 152.865 742.671C151.339 740.414 150.389 737.818 150.099 735.109C149.808 732.401 150.187 729.662 151.2 727.133L417.867 60.4667C419.511 56.3624 422.718 53.0795 426.783 51.3401C430.848 49.6007 435.437 49.5473 439.542 51.1917C443.646 52.836 446.929 56.0434 448.668 60.1082C450.408 64.1731 450.461 68.7624 448.817 72.8667L182.15 739.533C179.533 746.033 173.267 750 166.65 750H166.667Z" fill="#A67C52"/>
<path d="M66.6667 650C62.8101 649.968 59.0834 648.602 56.1195 646.135C53.1556 643.667 51.1371 640.25 50.4068 636.463C49.6765 632.676 50.2794 628.753 52.1132 625.36C53.9469 621.967 56.8985 619.314 60.4667 617.85L727.133 351.183C731.214 349.662 735.729 349.796 739.712 351.558C743.695 353.32 746.831 356.57 748.45 360.614C750.069 364.657 750.043 369.173 748.376 373.197C746.71 377.221 743.537 380.435 739.533 382.15L72.8667 648.817C70.8936 649.6 68.7896 650.002 66.6667 650Z" fill="#C19F85"/>
<path d="M366.667 266.667C366.667 310.869 384.226 353.262 415.482 384.518C446.738 415.774 489.131 433.333 533.333 433.333C577.536 433.333 619.928 415.774 651.184 384.518C682.441 353.262 700 310.869 700 266.667C700 244.78 695.689 223.107 687.313 202.886C678.937 182.665 666.661 164.292 651.184 148.816C635.708 133.339 617.335 121.063 597.114 112.687C576.893 104.311 555.22 100 533.333 100C511.446 100 489.774 104.311 469.553 112.687C449.332 121.063 430.959 133.339 415.482 148.816C400.006 164.292 387.729 182.665 379.353 202.886C370.978 223.107 366.667 244.78 366.667 266.667Z" fill="white"/>
<path d="M533.333 458.333C427.65 458.333 341.667 372.35 341.667 266.667C341.667 160.983 427.65 75 533.333 75C639.017 75 725 160.983 725 266.667C725 372.35 639.017 458.333 533.333 458.333ZM533.333 125C455.217 125 391.667 188.55 391.667 266.667C391.667 344.783 455.217 408.333 533.333 408.333C611.45 408.333 675 344.783 675 266.667C675 188.55 611.45 125 533.333 125Z" fill="#444444"/>
<path d="M466.667 266.667C466.667 284.348 473.69 301.305 486.193 313.807C498.695 326.31 515.652 333.333 533.333 333.333C551.014 333.333 567.971 326.31 580.474 313.807C592.976 301.305 600 284.348 600 266.667C600 248.986 592.976 232.029 580.474 219.526C567.971 207.024 551.014 200 533.333 200C515.652 200 498.695 207.024 486.193 219.526C473.69 232.029 466.667 248.986 466.667 266.667Z" fill="#E86C60"/>
</svg>
